<svg viewBox="0 0 396 178" fill="none" xmlns="http://www.w3.org/2000/svg">
<path d="M0 16C0 7.16344 7.16344 0 16 0H380C388.837 0 396 7.16344 396 16V162C396 170.837 388.837 178 380 178H16C7.16344 178 0 170.837 0 162V16Z" fill="url(#paint0_linear_1156_8999)"/>
<path d="M0 16C0 7.16344 7.16344 0 16 0H380C388.837 0 396 7.16344 396 16V162C396 170.837 388.837 178 380 178H16C7.16344 178 0 170.837 0 162V16Z" fill="url(#paint1_linear_1156_8999)"/>
<path d="M0 16C0 7.16344 7.16344 0 16 0H380C388.837 0 396 7.16344 396 16V162C396 170.837 388.837 178 380 178H16C7.16344 178 0 170.837 0 162V16Z" fill="url(#paint2_linear_1156_8999)"/>
<defs>
<linearGradient id="paint0_linear_1156_8999" x1="375" y1="149" x2="379" y2="21" gradientUnits="userSpaceOnUse">
<stop offset="0.390944" stop-color="white"/>
<stop offset="0.644975" stop-color="white" stop-opacity="0.8"/>
<stop offset="1" stop-color="white" stop-opacity="0"/>
</linearGradient>
<linearGradient id="paint1_linear_1156_8999" x1="198" y1="89.4258" x2="395.968" y2="91.9554" gradientUnits="userSpaceOnUse">
<stop stop-color="white"/>
<stop offset="0.118687" stop-color="white" stop-opacity="0.8"/>
<stop offset="1" stop-color="white" stop-opacity="0"/>
</linearGradient>
<linearGradient id="paint2_linear_1156_8999" x1="184" y1="120.457" x2="362.855" y2="-37.3728" gradientUnits="userSpaceOnUse">
<stop stop-color="white"/>
<stop offset="0.134423" stop-color="white" stop-opacity="0.8"/>
<stop offset="1" stop-color="white" stop-opacity="0"/>
</linearGradient>
</defs>
</svg>
