<svg xmlns="http://www.w3.org/2000/svg" width="26" height="26" viewBox="0 0 26 26" fill="none">
  <path d="M8.20921 0.0539976C8.94321 -0.111801 9.71127 0.109799 10.2434 0.641888L11.3244 1.72392C11.6329 2.03237 11.8059 2.45082 11.8059 2.88701V3.93193L12.8518 3.93193C13.288 3.93195 13.7064 4.10591 14.0149 4.41435L19.2453 9.64384C19.8237 10.2222 20.0315 11.0747 19.7854 11.8548L18.1907 16.9085C17.998 17.5189 17.5198 17.9969 16.9094 18.1897L11.8557 19.7854C11.0756 20.0317 10.2232 19.8229 9.64476 19.2444L0.642807 10.2425C0.110636 9.71028 -0.11199 8.94239 0.0539395 8.20829L1.25316 2.90751C1.43972 2.08278 2.08366 1.43869 2.90843 1.25224L8.20921 0.0539976ZM9.48363 2.40556C9.06101 1.98296 8.44578 1.81545 7.86742 1.96611L4.51683 2.83915C3.69503 3.05322 3.05313 3.69508 2.8391 4.51689L2.06175 7.50224C1.85236 8.30688 2.08515 9.16235 2.67308 9.75029L9.95042 17.0276C10.5687 17.6458 11.4799 17.8689 12.3137 17.6058L15.1731 16.7024C15.9019 16.4724 16.4733 15.9019 16.7034 15.1731L17.6057 12.3128C17.8688 11.479 17.6458 10.5677 17.0276 9.94951L13.5295 6.45146C13.2374 6.15941 12.8731 5.95009 12.4739 5.84404L10.6897 5.36943C10.5677 5.33705 10.4721 5.24233 10.4397 5.1204L9.92015 3.16435C9.84394 2.87739 9.69355 2.61553 9.48363 2.40556Z" fill="#1A1A1A"/>
  <path fill-rule="evenodd" clip-rule="evenodd" d="M14.3834 13.1041L20.5153 19.2983C20.8605 19.647 20.8577 20.2096 20.509 20.5548C20.1602 20.9 19.5977 20.8971 19.2525 20.5484L11.6708 12.8898L5.45812 14.9362L4.93453 13.2382L10.2606 11.4652L8.10787 9.29055C7.76267 8.94183 7.76552 8.3793 8.11423 8.0341C8.46295 7.68889 9.02548 7.69174 9.37068 8.04046L12.9448 11.6509L14.4732 6.25721L16.1844 6.73592L14.3834 13.1041Z" fill="#1A1A1A"/>
</svg>
