<svg width="29" height="29" viewBox="0 0 29 29" fill="none" xmlns="http://www.w3.org/2000/svg">
<g clip-path="url(#clip0_5515_27557)">
<path fill-rule="evenodd" clip-rule="evenodd" d="M21.4583 13.6223C21.4583 15.315 20.0861 16.6873 18.3934 16.6873C16.7006 16.6873 15.3284 15.315 15.3284 13.6223C15.3284 11.9295 16.7006 10.5573 18.3934 10.5573C20.0861 10.5573 21.4583 11.9295 21.4583 13.6223ZM19.7778 13.6223C19.7778 14.3869 19.158 15.0067 18.3934 15.0067C17.6288 15.0067 17.0089 14.3869 17.0089 13.6223C17.0089 12.8577 17.6288 12.2378 18.3934 12.2378C19.158 12.2378 19.7778 12.8577 19.7778 13.6223Z" fill="#0099FF"/>
<path fill-rule="evenodd" clip-rule="evenodd" d="M3.03462 23.3215C2.00231 22.1687 1.75086 19.559 2.24285 14.7452C2.92095 8.6143 5.7242 6 8.12146 6C8.98529 6 9.89356 6.35535 10.5207 6.7318C11.3851 7.25041 12.9383 7.44151 14.1693 7.44151C15.4004 7.44151 16.7107 7.21643 17.7527 6.7318C18.3799 6.35535 19.3534 6 20.2172 6C22.6145 6 25.4177 8.6143 26.0958 14.7452C26.588 19.559 26.3365 22.1687 25.3042 23.3215C24.901 23.7718 24.2269 24 23.6061 24C22.012 24 21.2578 23.503 20.2052 22.3994L20.2007 22.3946C19.8294 22.0055 19.4452 21.6029 18.9968 21.2028C18.0436 20.4805 16.6317 20.2147 15.5254 20.2147C15.3271 20.2147 15.1346 20.2193 14.9495 20.2237C14.7715 20.2281 14.5999 20.2322 14.4358 20.2322H13.903C13.739 20.2322 13.5673 20.2281 13.3895 20.2237C13.2042 20.2193 13.0118 20.2147 12.8134 20.2147C11.7072 20.2147 10.5016 20.423 9.62754 21.2028C9.17948 21.6026 8.79558 22.0049 8.42444 22.3938L8.41909 22.3994C7.36649 23.503 6.55107 24 4.95703 24C4.33625 24 3.43788 23.7717 3.03462 23.3215ZM22.5502 21.9346C22.325 21.8209 22.0527 21.6114 21.5662 21.1013L21.5451 21.0792C21.1824 20.6991 20.7541 20.2502 20.249 19.7995L20.1928 19.7494L20.1327 19.7039C18.7157 18.6301 16.8282 18.334 15.5254 18.334C15.3045 18.334 15.0932 18.339 14.9127 18.3433L14.9048 18.3435L14.9027 18.3436C14.7223 18.3481 14.5731 18.3515 14.4358 18.3515H13.903C13.7657 18.3515 13.6166 18.3481 13.4364 18.3436L13.4258 18.3433C13.2453 18.339 13.0342 18.334 12.8134 18.334C11.5427 18.334 9.76521 18.5595 8.37541 19.7995C7.87061 20.25 7.44252 20.6985 7.08001 21.0784L7.05813 21.1013C6.58971 21.5925 6.30374 21.8069 6.06302 21.9249C5.84946 22.0297 5.54708 22.1193 4.95703 22.1193C4.91237 22.1193 4.83963 22.1147 4.74844 22.1002C4.65844 22.0858 4.56893 22.0645 4.48982 22.0391C4.44507 22.0247 4.41004 22.011 4.38432 21.9998C4.2565 21.8103 4.04201 21.3284 3.93972 20.2316C3.82623 19.0147 3.87231 17.3023 4.11302 14.9443C4.76344 9.08216 7.24587 7.88072 8.12146 7.88072C8.53186 7.88072 9.10397 8.07493 9.55307 8.34452C10.2769 8.77879 11.1464 9.0061 11.8866 9.13427C12.6608 9.26834 13.4662 9.32223 14.1693 9.32223C15.5953 9.32223 17.1924 9.06655 18.5458 8.43712L18.6357 8.39533L18.7207 8.34431C19.1409 8.09209 19.7818 7.88072 20.2172 7.88072C21.0928 7.88072 23.5753 9.08218 24.2257 14.9444C24.4664 17.3024 24.5126 19.0147 24.3991 20.2316C24.2866 21.4379 24.0384 21.9004 23.919 22.0482C23.9095 22.0536 23.8922 22.0625 23.8652 22.0728C23.7906 22.1014 23.6951 22.1193 23.6061 22.1193C23.0169 22.1193 22.7391 22.03 22.5502 21.9346Z" fill="#0099FF"/>
</g>
<defs>
<clipPath id="clip0_5515_27557">
<rect width="29" height="29" fill="white"/>
</clipPath>
</defs>
</svg>
