<svg width="14" height="14" viewBox="0 0 14 14" fill="none" xmlns="http://www.w3.org/2000/svg">
<path d="M7.00049 1.25439C10.1736 1.25466 12.7456 3.82731 12.7456 7.00049C12.7453 10.1734 10.1734 12.7453 7.00049 12.7456C3.82731 12.7456 1.25466 10.1736 1.25439 7.00049C1.25439 3.82715 3.82715 1.25439 7.00049 1.25439ZM7.00049 2.24561C4.37483 2.24561 2.24561 4.37483 2.24561 7.00049C2.24587 9.62592 4.375 11.7544 7.00049 11.7544C9.62576 11.7541 11.7541 9.62576 11.7544 7.00049C11.7544 4.375 9.62592 2.24587 7.00049 2.24561ZM7.146 6.0376C7.41976 6.03769 7.64111 6.2599 7.64111 6.53369V9.12939H7.69971L7.75049 9.13135C8.00046 9.15679 8.1958 9.3688 8.1958 9.62549C8.19555 9.88196 8.0003 10.0932 7.75049 10.1187L7.69971 10.1206H6.4165C6.1429 10.1205 5.92165 9.89905 5.92139 9.62549C5.92139 9.3517 6.14274 9.12948 6.4165 9.12939H6.6499V7.02881H6.4165C6.14286 7.02872 5.92158 6.80731 5.92139 6.53369C5.92139 6.2599 6.14274 6.03769 6.4165 6.0376H7.146ZM7.00049 3.96631C7.38681 3.96657 7.69962 4.28014 7.69971 4.6665C7.69971 5.05294 7.38686 5.36644 7.00049 5.3667C6.61389 5.3667 6.30029 5.0531 6.30029 4.6665C6.30038 4.27998 6.61394 3.96631 7.00049 3.96631Z" fill="#1A1A1A"/>
</svg>
