<svg xmlns="http://www.w3.org/2000/svg" width="29" height="29" viewBox="0 0 29 29" fill="none">
  <path d="M16.0215 17.2109C20.1816 17.2109 23.3496 20.4082 23.3496 23.8486C23.3494 24.4496 22.8579 24.9101 22.2842 24.9102H6.71582C6.14213 24.9101 5.65064 24.4496 5.65039 23.8486C5.65039 20.3999 8.92657 17.2109 12.9785 17.2109H16.0215ZM12.9785 18.9102C10.032 18.9102 7.7818 21.0237 7.40625 23.2109H21.5957C21.2337 21.018 19.0512 18.9102 16.0215 18.9102H12.9785ZM14.5 4.15039C17.7308 4.15042 20.3496 6.76915 20.3496 10C20.3496 13.2308 17.7308 15.8496 14.5 15.8496C11.2691 15.8496 8.65039 13.2309 8.65039 10C8.65039 8.83197 8.99363 7.74161 9.58496 6.82715C9.66269 6.70687 9.67052 6.6021 9.61621 6.43652C9.54686 6.22538 9.41798 6.04099 9.25586 5.78809C9.25836 5.79199 9.25661 5.79005 9.24805 5.77832C9.23933 5.76639 9.2306 5.75339 9.21484 5.73242C9.19206 5.7021 9.13739 5.63167 9.0918 5.55664C9.06838 5.51809 9.03188 5.45311 9.00098 5.37207C8.97481 5.30341 8.91912 5.13934 8.94434 4.93066C8.976 4.66892 9.12557 4.42211 9.37305 4.27637C9.57072 4.16002 9.76101 4.15041 9.84766 4.15039H14.5ZM11.2314 5.90723C11.4003 6.42191 11.439 7.08929 11.0117 7.75C10.5929 8.39772 10.3496 9.16926 10.3496 10C10.3496 12.292 12.208 14.1504 14.5 14.1504C16.792 14.1504 18.6504 12.292 18.6504 10C18.6504 7.70804 16.792 5.84964 14.5 5.84961H11.21C11.2168 5.86887 11.2251 5.88774 11.2314 5.90723Z" fill="black" fill-opacity="0.9"/>
</svg>
