<svg width="16" height="16" viewBox="0 0 16 16" fill="none" xmlns="http://www.w3.org/2000/svg">
<path fill-rule="evenodd" clip-rule="evenodd" d="M3.3334 10.7664C3.64633 10.7664 3.89981 11.0208 3.89981 11.3337V13.3337C3.8996 13.6465 3.6462 13.9001 3.3334 13.9001C3.02057 13.9001 2.76721 13.6465 2.76699 13.3337V11.3337C2.76699 11.0208 3.02044 10.7664 3.3334 10.7664ZM8.00039 9.43335C8.31309 9.43356 8.56666 9.68704 8.5668 9.99976V13.3337C8.56659 13.6464 8.31304 13.8999 8.00039 13.9001C7.68756 13.9001 7.43322 13.6465 7.43301 13.3337V9.99976C7.43315 9.68691 7.68752 9.43335 8.00039 9.43335ZM12.6664 8.10034C12.9794 8.10034 13.2338 8.35379 13.2338 8.66675V13.3337C13.2336 13.6465 12.9792 13.9001 12.6664 13.9001C12.3537 13.9 12.1002 13.6464 12.1 13.3337V8.66675C12.1 8.35387 12.3536 8.10048 12.6664 8.10034ZM13.0004 2.43335C13.3131 2.43356 13.5667 2.68704 13.5668 2.99976V6.33374C13.5666 6.64639 13.313 6.89994 13.0004 6.90015C12.6876 6.90015 12.4332 6.64652 12.433 6.33374V4.37964C11.0517 5.75359 9.27393 6.66906 7.60586 7.25952C5.80402 7.89732 4.0841 8.17367 3.03164 8.23218C2.71916 8.24954 2.45135 8.01048 2.43399 7.698C2.4167 7.38567 2.65586 7.11882 2.96817 7.10132C3.91564 7.04868 5.5292 6.79205 7.22695 6.19116C8.8084 5.63138 10.4223 4.7862 11.6439 3.56714H9.3334C9.02044 3.56714 8.76699 3.31272 8.76699 2.99976C8.76713 2.68691 9.02053 2.43335 9.3334 2.43335H13.0004Z" fill="#0099FF"/>
</svg>
