<svg width="77" height="77" viewBox="0 0 77 77" fill="none" xmlns="http://www.w3.org/2000/svg">
<rect x="0.317038" y="3.98515" width="72.1849" height="72.1849" stroke="black" stroke-opacity="0.1" stroke-width="0.5"/>
<line x1="0.067038" y1="48.9108" x2="72.752" y2="48.9108" stroke="black" stroke-opacity="0.1" stroke-width="0.5"/>
<path d="M0.403707 76.4201L4.87652 73.3068C5.03768 73.1946 5.16262 73.0379 5.23605 72.8558L7.57208 67.0632C7.87211 66.3193 8.87816 66.2056 9.33668 66.8638L10.3578 68.3297C10.8147 68.9856 11.8165 68.8755 12.12 68.136L15.547 59.7873C15.8243 59.1118 16.7049 58.945 17.2099 59.4724L18.1234 60.4261C18.6495 60.9754 19.5712 60.7676 19.8106 60.0456L27.7356 36.1502C28.004 35.341 29.0926 35.2083 29.5475 35.9293L31.6468 39.2561C32.1062 39.9842 33.2077 39.84 33.4642 39.0182L38.8194 21.8635C39.1098 20.9331 40.4197 20.9138 40.7374 21.8352L44.5566 32.9118C44.8563 33.7808 46.067 33.8297 46.4358 32.9876L48.1743 29.0169C48.5383 28.1857 49.7287 28.2193 50.0452 29.0697L53.6076 38.6417C53.9302 39.5084 55.1515 39.5213 55.4922 38.6615L58.2608 31.6759C58.6034 30.8115 59.8335 30.8307 60.1489 31.7054L60.7962 33.5003C61.1186 34.3946 62.3855 34.3881 62.6989 33.4907L73.0886 3.73515" stroke="#906B37" stroke-width="1.4" stroke-linejoin="round"/>
<circle cx="73.0886" cy="3.73515" r="3.02854" fill="white" stroke="#906B37" stroke-width="1.4"/>
</svg>
