<svg width="17" height="17" viewBox="0 0 17 17" fill="none" xmlns="http://www.w3.org/2000/svg">
<circle cx="8.55556" cy="8.55556" r="8.05556" fill="#07C160" stroke="white"/>
<path fill-rule="evenodd" clip-rule="evenodd" d="M11.5641 7.83444C11.2659 8.32337 10.7716 8.69812 10.1779 8.87005C10.1631 8.87408 10.1483 8.87946 10.1336 8.88349C10.0422 8.90901 9.94819 8.92513 9.85551 8.92513C9.44449 8.92513 9.21212 8.64708 9.33703 8.30456C9.42837 8.05473 9.66746 7.8425 9.95894 7.74444C10.4116 7.57923 10.7273 7.20313 10.7273 6.76524C10.7273 6.17557 10.1524 5.69605 9.44449 5.69605C8.73662 5.69605 8.16173 6.17423 8.16173 6.76524V10.0427C8.16173 10.8311 7.70503 11.5229 7.02134 11.9138C6.64927 12.1273 6.21004 12.2523 5.73858 12.2523C4.40208 12.2523 3.31543 11.261 3.31543 10.0427C3.31543 9.65449 3.42691 9.29048 3.61899 8.97348C3.91853 8.48321 4.41551 8.10711 5.01324 7.93518H5.01459C5.11533 7.90429 5.2201 7.88682 5.32218 7.88682C5.73455 7.88682 5.96826 8.16621 5.84335 8.51007C5.75872 8.74379 5.53038 8.94393 5.26308 9.05004C5.23084 9.06079 5.19995 9.07288 5.1704 9.08497C4.74729 9.25958 4.45581 9.62225 4.45581 10.0427C4.45581 10.6323 5.0307 11.1119 5.73858 11.1119C6.44645 11.1119 7.02134 10.6337 7.02134 10.0427V6.76524C7.02134 5.97678 7.47803 5.28503 8.16173 4.89415C8.53379 4.68058 8.97303 4.55566 9.44449 4.55566C10.781 4.55566 11.8676 5.54695 11.8676 6.76524C11.8676 7.15343 11.7562 7.51744 11.5641 7.83444Z" fill="white"/>
</svg>
