<svg width="141" height="129" viewBox="0 0 141 129" fill="none" xmlns="http://www.w3.org/2000/svg">
<path d="M70.5359 0.199503C86.7626 0.199583 101.58 6.21278 112.875 16.1558L97.8199 31.2153C90.3996 25.1103 80.8966 21.4486 70.5359 21.4485C46.7815 21.4485 27.5294 40.7074 27.5294 64.4697C27.5295 74.7343 31.1284 84.1642 37.1319 91.5639C37.1626 91.6022 37.2933 91.7634 37.2933 91.7634L37.2777 91.7781L33.9243 95.1256L6.2638 122.803C6.29436 122.757 6.31716 122.711 6.34008 122.665L0 129C12.8574 111.933 11.2649 93.7775 9.67979 85.8184C9.47306 84.7461 8.78387 82.1957 8.63827 81.6973V81.6739C7.12211 76.1969 6.30197 70.429 6.30194 64.4619C6.30194 52.6956 9.46492 41.8176 14.9862 32.3341C16.02 30.2965 17.6741 27.9981 18.6007 26.7725L21.0583 28.3206C21.0583 28.3206 24.2903 22.6285 34.4367 14.7691L32.8055 12.5325C34.7538 11.0556 38.3588 8.80682 38.4033 8.7791C47.8147 3.37091 58.9038 0.199503 70.5359 0.199503ZM140.987 0C128.129 17.0672 129.722 35.2225 131.307 43.1816C131.514 44.2542 132.203 46.8048 132.349 47.3027V47.333L132.356 47.3105C133.872 52.7874 134.692 58.5554 134.692 64.5225C134.692 76.2887 131.53 87.1668 126.008 96.6502C124.975 98.6879 123.321 100.986 122.394 102.212L119.935 100.664C119.935 100.664 116.704 106.356 106.558 114.215L108.188 116.452C106.228 117.938 102.59 120.205 102.59 120.205C93.179 125.613 82.0908 128.785 70.4587 128.785C54.2319 128.785 39.4141 122.764 28.1113 112.844L43.1669 97.7837C50.5872 103.889 60.0901 107.55 70.4509 107.551C94.2052 107.551 113.457 88.2926 113.457 64.5303C113.457 54.2656 109.858 44.8359 103.854 37.4361C103.823 37.3976 103.693 37.2366 103.693 37.2366L103.709 37.2219L107.063 33.8734L134.723 6.1973C134.692 6.24326 134.669 6.28923 134.646 6.33519L140.987 0ZM68.5986 54.787C63.8814 55.7139 60.6264 59.7355 60.6263 64.5538C60.6263 69.3798 63.8814 73.4014 68.5986 74.3206V101.438C68.5986 101.438 68.4524 94.9886 61.4762 92.4607H61.5837C50.8859 89.0289 42.8528 79.6371 41.3978 68.1849V68.1693L42.8373 67.9776C42.7072 66.8517 42.6769 65.7102 42.6769 64.546C42.6771 49.8306 54.0949 37.7733 68.5986 36.7545V54.787ZM72.2288 27.5773C72.2309 27.621 72.5586 34.0356 79.5106 36.555H79.5644C90.2623 39.9868 98.2954 49.3785 99.7504 60.8307L99.7582 60.8464L98.2424 61.0371C98.3725 62.1631 98.3186 63.3053 98.3186 64.4697C98.3184 79.1849 86.7323 91.2423 72.2288 92.2612V74.2287C76.9458 73.3017 80.1999 69.2877 80.2001 64.4619C80.2001 59.636 76.9458 55.6144 72.2288 54.695V27.5773Z" fill="white" fill-opacity="0.5"/>
</svg>
