<svg width="396" height="223" viewBox="0 0 396 223" preserveAspectRatio="none" fill="none" xmlns="http://www.w3.org/2000/svg">
<path d="M0 16C0 7.16344 7.16344 0 16 0H380C388.837 0 396 7.16344 396 16V207C396 215.837 388.837 223 380 223H16C7.16344 223 0 215.837 0 207V16Z" fill="url(#paint0_linear_1156_7531)"/>
<path d="M0 16C0 7.16344 7.16344 0 16 0H380C388.837 0 396 7.16344 396 16V207C396 215.837 388.837 223 380 223H16C7.16344 223 0 215.837 0 207V16Z" fill="url(#paint1_linear_1156_7531)"/>
<path d="M0 16C0 7.16344 7.16344 0 16 0H380C388.837 0 396 7.16344 396 16V207C396 215.837 388.837 223 380 223H16C7.16344 223 0 215.837 0 207V16Z" fill="url(#paint2_linear_1156_7531)"/>
<defs>
<linearGradient id="paint0_linear_1156_7531" x1="396" y1="180.041" x2="396" y2="90.6399" gradientUnits="userSpaceOnUse">
<stop stop-color="white"/>
<stop offset="0.45" stop-color="white" stop-opacity="0.8"/>
<stop offset="1" stop-color="white" stop-opacity="0"/>
</linearGradient>
<linearGradient id="paint1_linear_1156_7531" x1="185.226" y1="112.033" x2="351.001" y2="116.735" gradientUnits="userSpaceOnUse">
<stop stop-color="white"/>
<stop offset="0.286458" stop-color="white" stop-opacity="0.8"/>
<stop offset="1" stop-color="white" stop-opacity="0"/>
</linearGradient>
<linearGradient id="paint2_linear_1156_7531" x1="184" y1="150.91" x2="396.635" y2="1.13564" gradientUnits="userSpaceOnUse">
<stop stop-color="white"/>
<stop offset="0.134423" stop-color="white" stop-opacity="0.8"/>
<stop offset="1" stop-color="white" stop-opacity="0"/>
</linearGradient>
</defs>
</svg>
